<svg width="46" height="46" viewBox="0 0 46 46" fill="none" xmlns="http://www.w3.org/2000/svg">
<g filter="url(#filter0_di_356_35626)">
<rect x="5.7002" y="5.69995" width="34" height="34" rx="9" fill="url(#paint0_linear_356_35626)" shape-rendering="crispEdges"/>
<rect x="5.7002" y="5.69995" width="34" height="34" rx="9" fill="url(#paint1_radial_356_35626)" shape-rendering="crispEdges"/>
<rect x="5.7002" y="5.69995" width="34" height="34" rx="9" fill="url(#paint2_radial_356_35626)" fill-opacity="0.2" shape-rendering="crispEdges"/>
<rect x="5.9502" y="5.94995" width="33.5" height="33.5" rx="8.75" stroke="url(#paint3_linear_356_35626)" stroke-opacity="0.24" style="mix-blend-mode:overlay" stroke-width="0.5" shape-rendering="crispEdges"/>
<rect x="5.9502" y="5.94995" width="33.5" height="33.5" rx="8.75" stroke="url(#paint4_radial_356_35626)" stroke-width="0.5" shape-rendering="crispEdges"/>
<path d="M20.7005 24.0334L17.3672 20.7M17.3672 20.7L20.7005 17.3667M17.3672 20.7H24.3672C24.8487 20.7 25.3255 20.7949 25.7704 20.9791C26.2152 21.1634 26.6194 21.4335 26.9599 21.774C27.3004 22.1145 27.5705 22.5187 27.7547 22.9635C27.939 23.4084 28.0339 23.8852 28.0339 24.3667C28.0339 24.8482 27.939 25.325 27.7547 25.7699C27.5705 26.2147 27.3004 26.6189 26.9599 26.9594C26.6194 27.2999 26.2152 27.57 25.7704 27.7543C25.3255 27.9385 24.8487 28.0334 24.3672 28.0334H22.0339" stroke="white" stroke-width="1.3" stroke-linecap="round" stroke-linejoin="round"/>
</g>
<defs>
<filter id="filter0_di_356_35626" x="0.000195503" y="-4.86374e-05" width="45.4" height="45.4" filterUnits="userSpaceOnUse" color-interpolation-filters="sRGB">
<feFlood flood-opacity="0" result="BackgroundImageFix"/>
<feColorMatrix in="SourceAlpha" type="matrix" values="0 0 0 0 0 0 0 0 0 0 0 0 0 0 0 0 0 0 127 0" result="hardAlpha"/>
<feOffset/>
<feGaussianBlur stdDeviation="2.85"/>
<feComposite in2="hardAlpha" operator="out"/>
<feColorMatrix type="matrix" values="0 0 0 0 0.591716 0 0 0 0 0.722707 0 0 0 0 0.965976 0 0 0 0.48 0"/>
<feBlend mode="normal" in2="BackgroundImageFix" result="effect1_dropShadow_356_35626"/>
<feBlend mode="normal" in="SourceGraphic" in2="effect1_dropShadow_356_35626" result="shape"/>
<feColorMatrix in="SourceAlpha" type="matrix" values="0 0 0 0 0 0 0 0 0 0 0 0 0 0 0 0 0 0 127 0" result="hardAlpha"/>
<feOffset dx="-2" dy="2"/>
<feGaussianBlur stdDeviation="0.75"/>
<feComposite in2="hardAlpha" operator="arithmetic" k2="-1" k3="1"/>
<feColorMatrix type="matrix" values="0 0 0 0 0 0 0 0 0 0 0 0 0 0 0 0 0 0 0.48 0"/>
<feBlend mode="overlay" in2="shape" result="effect2_innerShadow_356_35626"/>
</filter>
<linearGradient id="paint0_linear_356_35626" x1="22.7002" y1="5.69995" x2="22.7002" y2="39.7" gradientUnits="userSpaceOnUse">
<stop stop-color="#191919"/>
<stop offset="1" stop-color="#191919"/>
</linearGradient>
<radialGradient id="paint1_radial_356_35626" cx="0" cy="0" r="1" gradientUnits="userSpaceOnUse" gradientTransform="translate(51.2002 -11.8) rotate(133.152) scale(54.8293 277.573)">
<stop stop-color="#B1D9FF"/>
<stop offset="1" stop-color="#847DE9"/>
</radialGradient>
<radialGradient id="paint2_radial_356_35626" cx="0" cy="0" r="1" gradientUnits="userSpaceOnUse" gradientTransform="translate(22.7002 5.69995) rotate(90) scale(27 59.8242)">
<stop stop-color="white" stop-opacity="0.32"/>
<stop offset="1" stop-color="white" stop-opacity="0"/>
</radialGradient>
<linearGradient id="paint3_linear_356_35626" x1="17.2002" y1="18.7" x2="2.70019" y2="39.7" gradientUnits="userSpaceOnUse">
<stop stop-color="white" stop-opacity="0"/>
<stop offset="1" stop-color="white"/>
</linearGradient>
<radialGradient id="paint4_radial_356_35626" cx="0" cy="0" r="1" gradientUnits="userSpaceOnUse" gradientTransform="translate(5.70019 39.7) rotate(-90) scale(18 44.7969)">
<stop stop-color="white" stop-opacity="0.24"/>
<stop offset="1" stop-color="white" stop-opacity="0"/>
</radialGradient>
</defs>
</svg>
